<?xml version="1.0" standalone="no"?>
<!DOCTYPE svg PUBLIC "-//W3C//DTD SVG 20010904//EN"
 "http://www.w3.org/TR/2001/REC-SVG-20010904/DTD/svg10.dtd">
<svg version="1.0" xmlns="http://www.w3.org/2000/svg"
 width="135.000000pt" height="214.000000pt" viewBox="0 0 135.000000 214.000000"
 preserveAspectRatio="xMidYMid meet">
<metadata>
Created by potrace 1.16, written by Peter Selinger 2001-2019
</metadata>
<g transform="translate(0.000000,214.000000) scale(0.100000,-0.100000)"
fill="#000000" stroke="none">
<path d="M959 1822 c-13 -10 -58 -36 -99 -57 -41 -21 -103 -53 -138 -71 -80
-43 -97 -44 -87 -6 4 15 8 41 10 57 1 17 6 41 9 55 4 14 -2 3 -14 -25 -11 -27
-24 -57 -29 -65 -5 -9 -12 -30 -15 -47 -8 -35 -14 -41 -68 -72 -21 -12 -55
-31 -75 -42 -115 -65 -257 -140 -325 -169 -80 -34 -95 -54 -63 -80 17 -14 50
-9 50 8 0 7 36 28 80 46 92 38 168 75 274 135 44 24 78 38 84 32 5 -5 0 -59
-12 -132 -31 -190 -37 -396 -15 -554 20 -145 22 -184 10 -300 -8 -79 -8 -81
19 -114 25 -29 32 -32 63 -26 30 6 38 3 59 -22 26 -30 26 -26 7 36 -4 15 2 23
23 35 39 20 134 139 178 223 41 80 105 245 105 272 0 38 11 51 44 51 39 0 83
-43 112 -110 23 -54 25 -169 6 -307 -22 -150 6 -144 42 9 27 116 20 234 -20
318 -18 39 -44 75 -64 90 -70 53 -83 69 -76 101 11 58 29 297 23 313 -12 30
-30 18 -23 -16 6 -34 -13 -175 -37 -269 -13 -50 -17 -54 -50 -61 -19 -4 -50
-16 -68 -28 -19 -11 -48 -26 -64 -34 -53 -25 -159 -149 -205 -239 -33 -67 -55
6 -65 215 -5 129 -3 182 14 314 12 87 24 178 27 202 7 53 52 107 110 132 79
34 219 103 245 121 14 10 34 16 45 13 26 -7 57 27 52 58 -4 30 -45 36 -79 10z
m-3 -856 c3 -13 0 -34 -6 -46 -6 -12 -18 -44 -27 -72 -8 -28 -26 -75 -39 -104
-13 -29 -24 -55 -24 -57 0 -2 -19 -33 -42 -69 -44 -66 -124 -148 -145 -148
-15 0 -30 26 -54 100 -24 75 -16 103 72 235 64 95 172 183 226 184 26 1 34 -4
39 -23z m-336 -482 c14 -36 13 -44 -9 -44 -17 0 -31 25 -31 58 0 22 30 12 40
-14z"/>
</g>
</svg>
