<?xml version="1.0" standalone="no"?>
<!DOCTYPE svg PUBLIC "-//W3C//DTD SVG 20010904//EN"
 "http://www.w3.org/TR/2001/REC-SVG-20010904/DTD/svg10.dtd">
<svg version="1.0" xmlns="http://www.w3.org/2000/svg"
 width="24.000000pt" height="37.000000pt" viewBox="0 0 24.000000 37.000000"
 preserveAspectRatio="xMidYMid meet">
<metadata>
Created by potrace 1.16, written by Peter Selinger 2001-2019
</metadata>
<g transform="translate(0.000000,37.000000) scale(0.100000,-0.100000)"
fill="#000000" stroke="none">
<path d="M137 353 c-4 -3 -7 -25 -7 -47 0 -52 -8 -63 -45 -69 l-30 -4 33 -2
c29 -1 32 -4 32 -34 0 -27 -6 -36 -37 -52 -67 -37 -95 -125 -34 -110 41 9 103
57 120 92 9 18 21 33 28 33 16 0 26 -71 14 -103 -6 -15 -6 -27 -2 -27 27 0 22
136 -5 147 -19 7 -19 63 0 63 8 0 17 4 20 9 3 5 -15 6 -41 3 l-46 -5 5 57 c3
31 4 56 3 56 -1 0 -5 -3 -8 -7z m43 -137 c0 -26 -24 -51 -40 -41 -11 7 -14 48
-3 58 3 4 15 7 25 7 12 0 18 -7 18 -24z m-10 -65 c0 -12 -29 -35 -36 -28 -11
10 5 37 21 37 8 0 15 -4 15 -9z m-61 -67 c-16 -19 -69 -47 -76 -40 -14 14 11
58 45 80 l37 23 3 -24 c2 -13 -2 -31 -9 -39z"/>
</g>
</svg>
